<?xml version="1.0" standalone="no"?>
<!DOCTYPE svg PUBLIC "-//W3C//DTD SVG 1.1//EN" "http://www.w3.org/Graphics/SVG/1.1/DTD/svg11.dtd" >
<svg xmlns="http://www.w3.org/2000/svg">
<metadata>Generated by IcoMoon</metadata>
<defs>
<font id="icomoon" horiz-adv-x="1024">
<font-face units-per-em="1024" ascent="960" descent="-64" />
<missing-glyph horiz-adv-x="1024" />
<glyph unicode="&#x20;" horiz-adv-x="512" d="" />
<glyph unicode="&#xe900;" glyph-name="adaptab-almacen" d="M513.6 248c-16 16-33.6 25.6-54.4 32l-41.6 161.6 494.4 137.6 52.8-206.4c1.6 1.6-451.2-124.8-451.2-124.8zM356.8 684.8l329.6 92.8 52.8-206.4-329.6-91.2c1.6-1.6-52.8 204.8-52.8 204.8zM371.2 283.2c-9.6-3.2-17.6-6.4-25.6-11.2l-145.6 566.4h-54.4c-6.4-12.8-16-19.2-30.4-19.2h-68.8c-19.2 0-33.6 16-33.6 35.2s16 35.2 33.6 35.2h68.8c11.2 0 22.4-6.4 27.2-16h105.6v-1.6h1.6l150.4-584c-9.6 0-19.2-1.6-28.8-4.8zM380.8 249.6c64 19.2 128-22.4 145.6-88 17.6-67.2-20.8-134.4-84.8-153.6-64-17.6-128 22.4-145.6 88-17.6 67.2 20.8 136 84.8 153.6zM363.2 112c8-27.2 35.2-44.8 62.4-36.8s43.2 36.8 35.2 65.6c-8 27.2-35.2 44.8-62.4 36.8s-43.2-35.2-35.2-65.6zM961.6 254.4l-398.4-112c0 9.6-1.6 19.2-4.8 28.8s-6.4 19.2-9.6 27.2l396.8 112c0-3.2 16-56 16-56z" />
<glyph unicode="&#xe901;" glyph-name="adaptabilidad" d="M820.8-38.4h-608c-33.6 0-60.8 27.2-60.8 60.8v760c0 33.6 27.2 60.8 60.8 60.8h182.4v-60.8h-152c-17.6 0-30.4-14.4-30.4-30.4v-699.2c0-17.6 14.4-30.4 30.4-30.4h547.2c17.6 0 30.4 14.4 30.4 30.4v699.2c0 17.6-14.4 30.4-30.4 30.4h-152v60.8h182.4c33.6 0 60.8-27.2 60.8-60.8v-760c0-33.6-27.2-60.8-60.8-60.8zM790.4 752v-699.2h-547.2v699.2h30.4v-123.2h486.4v123.2c1.6 0 30.4 0 30.4 0zM364.8 537.6h-30.4v-30.4h30.4v30.4zM364.8 478.4h-30.4v-30.4h30.4v30.4zM364.8 416h-30.4v-30.4h30.4v30.4zM364.8 356.8h-30.4v-30.4h30.4v30.4zM364.8 296h-30.4v-30.4h30.4v30.4zM364.8 233.6h-30.4v-30.4h30.4v30.4zM364.8 174.4h-30.4v-30.4h30.4v30.4zM699.2 537.6h-304v-30.4h304v30.4zM699.2 478.4h-304v-30.4h304v30.4zM699.2 416h-304v-30.4h304v30.4zM699.2 356.8h-304v-30.4h304v30.4zM699.2 296h-304v-30.4h304v30.4zM699.2 233.6h-304v-30.4h304v30.4zM699.2 174.4h-304v-30.4h304v30.4zM699.2 752c17.6 0 30.4-14.4 30.4-30.4 0-17.6 0-60.8 0-60.8h-425.6c0 0 0 44.8 0 60.8s14.4 30.4 30.4 30.4h91.2c0 0 0 38.4 0 88 0 51.2 40 92.8 89.6 92.8s92.8-43.2 92.8-94.4c0-54.4-1.6-86.4-1.6-86.4h92.8zM516.8 843.2c-17.6 0-30.4-14.4-30.4-30.4s14.4-30.4 30.4-30.4c16 0 30.4 14.4 30.4 30.4s-12.8 30.4-30.4 30.4z" />
<glyph unicode="&#xe902;" glyph-name="beneficios-aereos" d="M275.2 712c0-17.6 0-59.2 0-59.2h417.6c0 0 0 43.2 0 59.2s-14.4 28.8-28.8 28.8h-88c0 0 1.6 33.6 1.6 84.8 0 48-41.6 91.2-91.2 91.2s-88-41.6-88-91.2c0-48 0-86.4 0-86.4h-88c-22.4 3.2-35.2-11.2-35.2-27.2zM481.6 830.4c17.6 0 28.8-14.4 28.8-28.8 0-17.6-14.4-28.8-28.8-28.8-17.6 0-28.8 14.4-28.8 28.8-1.6 16 12.8 28.8 28.8 28.8zM750.4 742.4v-294.4c0 0 25.6 27.2 59.2 41.6v281.6c0 32-27.2 59.2-60.8 59.2h-145.6v-59.2h120c14.4 0 27.2-14.4 27.2-28.8zM420.8 27.2h-177.6c-17.6 0-28.8 14.4-28.8 28.8v684.8c0 17.6 14.4 28.8 28.8 28.8h121.6v59.2h-150.4c-32 0-59.2-25.6-59.2-59.2v-744c0-32 25.6-59.2 59.2-59.2h270.4c-11.2 20.8-32 43.2-64 60.8zM750.4 56c0-17.6-14.4-28.8-28.8-28.8h-80c-16-20.8-28.8-40-41.6-59.2h150.4c32 0 60.8 25.6 60.8 59.2v182.4c-20.8-16-38.4-33.6-59.2-54.4v-99.2h-1.6zM875.2 297.6c-33.6 75.2-14.4 134.4-9.6 204.8-195.2-97.6-320-390.4-320-390.4l-76.8 144-158.4-92.8c67.2-24 163.2-97.6 243.2-195.2 59.2 102.4 236.8 312 321.6 329.6z" />
<glyph unicode="&#xe903;" glyph-name="beneficios-terrestres" d="M492.8 916.8c-177.6 0-332.8-150.4-342.4-324.8-20.8-310.4 342.4-627.2 342.4-627.2s259.2 176 344 524.8c44.8 184-100.8 427.2-344 427.2zM497.6 315.2c-134.4 0-241.6 108.8-241.6 241.6s108.8 241.6 241.6 241.6 241.6-108.8 241.6-241.6-108.8-241.6-241.6-241.6zM659.2 592c-8 0-14.4 0-14.4 0h-28.8v-19.2c8-4.8 14.4-14.4 14.4-24v-97.6h-267.2v97.6c0 9.6 6.4 19.2 14.4 24v19.2h-28.8c0 0-6.4 0-14.4 0s-14.4 6.4-14.4 14.4v14.4c0 8 6.4 14.4 14.4 14.4s14.4 0 14.4 0v-28.8h28.8v43.2c0 16 12.8 28.8 28.8 28.8h184c16 0 28.8-12.8 28.8-28.8v-43.2h28.8v28.8c0 0 6.4 0 14.4 0s14.4-6.4 14.4-14.4v-14.4c-3.2-8-9.6-14.4-17.6-14.4zM448 465.6h99.2v14.4h-99.2v-14.4zM448 492.8h99.2v14.4h-99.2v-14.4zM448 521.6h99.2v14.4h-99.2v-14.4zM390.4 478.4c0-8 6.4-14.4 14.4-14.4h14.4c8 0 14.4 6.4 14.4 14.4s-6.4 14.4-14.4 14.4h-14.4c-6.4 0-14.4-4.8-14.4-14.4zM588.8 635.2c0 8-6.4 14.4-14.4 14.4h-155.2c-8 0-14.4-6.4-14.4-14.4v-70.4h184v70.4zM588.8 492.8h-14.4c-8 0-14.4-6.4-14.4-14.4s6.4-14.4 14.4-14.4h14.4c8 0 14.4 6.4 14.4 14.4 0 9.6-6.4 14.4-14.4 14.4zM603.2 691.2h-212.8c-16 0-28.8-12.8-28.8-28.8v70.4c0 8 6.4 14.4 14.4 14.4h240c8 0 14.4-6.4 14.4-14.4v-70.4c1.6 16-11.2 28.8-27.2 28.8zM632 424c0-8-6.4-14.4-14.4-14.4h-240c-8 0-14.4 6.4-14.4 14.4s0 14.4 0 14.4h268.8c0 0 0-8 0-14.4zM433.6 366.4c0-8-6.4-14.4-14.4-14.4h-14.4c-8 0-14.4 6.4-14.4 14.4v28.8h43.2v-28.8zM603.2 366.4c0-8-6.4-14.4-14.4-14.4h-14.4c-8 0-14.4 6.4-14.4 14.4v28.8h43.2v-28.8z" />
<glyph unicode="&#xe904;" glyph-name="cabina-ancha" d="M899.2 851.2c30.4-105.6 3.2-179.2-75.2-251.2l-27.2-25.6 118.4-483.2-105.6-112-262.4 356.8-91.2-86.4 35.2-147.2-62.4-67.2-91.2 169.6-64-67.2-54.4 51.2 62.4 67.2-169.6 80 62.4 67.2 152-28.8 80 94.4-372.8 244.8 105.6 112 491.2-91.2 28.8 33.6c78.4 92.8 158.4 105.6 240 83.2v0zM992 334.4l-96 89.6-16-16 36.8-152 75.2 78.4zM376 916.8l-73.6-78.4 153.6-28.8 16 16-96 91.2z" />
<glyph unicode="&#xe905;" glyph-name="cabina-angosta" d="M907.2 883.2c27.2-19.2 35.2-59.2 16-88l-185.6-262.4 190.4-449.6-64-91.2-259.2 352-126.4-177.6 20.8-116.8-49.6-72-92.8 123.2-147.2 43.2 52.8 73.6 110.4 17.6 128 179.2-420.8 121.6 65.6 92.8 489.6-24 184 259.2c19.2 32 57.6 38.4 88 19.2z" />
<glyph unicode="&#xe906;" glyph-name="cobert-amplia" d="M643.2 878.4h-38.4v22.4c0 17.6-14.4 32-32 32h-171.2c-17.6 0-32-14.4-32-32v-22.4h-16c-28.8 0-52.8-24-52.8-52.8v-76.8c0-28.8 24-52.8 52.8-52.8h289.6c28.8 0 52.8 24 52.8 52.8v75.2c0 30.4-24 54.4-52.8 54.4zM758.4 771.2h-44.8v-51.2c0-27.2-22.4-48-48-48h-336c-27.2 0-48 22.4-48 48v51.2h-54.4c-35.2 0-62.4-28.8-62.4-62.4v-670.4c0-35.2 28.8-62.4 62.4-62.4h531.2c35.2 0 62.4 28.8 62.4 62.4v668.8c0 35.2-28.8 64-62.4 64zM489.6 52.8l-257.6 121.6v259.2l257.6-108.8v-272zM763.2 176l-256-121.6v272c0 0 256 108.8 256 108.8v-259.2zM497.6 339.2l-264 113.6 264 113.6 265.6-113.6-265.6-113.6zM409.6 288l-97.6 44.8-1.6-35.2 99.2-46.4z" />
<glyph unicode="&#xe907;" glyph-name="contenedores" d="M33.6 609.6l102.4 32v-273.6l-11.2-1.6v78.4h-16v-96h9.6l19.2 1.6v-160h-104v419.2zM336 691.2l657.6-112v-388.8h-657.6v500.8zM393.6 612.8v-363.2c0-14.4 11.2-24 24-24 14.4 0 24 11.2 24 24v363.2c0 14.4-11.2 24-24 24s-24-11.2-24-24v0zM908.8 542.4v-297.6c0-11.2 9.6-20.8 20.8-20.8s20.8 9.6 20.8 20.8v297.6c0 11.2-9.6 20.8-20.8 20.8s-20.8-9.6-20.8-20.8v0zM819.2 553.6v-307.2c0-11.2 9.6-20.8 20.8-20.8s20.8 9.6 20.8 20.8v307.2c0 11.2-9.6 20.8-20.8 20.8-12.8 0-20.8-9.6-20.8-20.8v0zM718.4 564.8v-318.4c0-11.2 9.6-22.4 22.4-22.4 11.2 0 22.4 9.6 22.4 22.4v318.4c0 11.2-9.6 22.4-22.4 22.4s-22.4-9.6-22.4-22.4v0zM617.6 579.2v-331.2c0-12.8 9.6-22.4 22.4-22.4s22.4 9.6 22.4 22.4v331.2c0 12.8-9.6 22.4-22.4 22.4-11.2 0-22.4-9.6-22.4-22.4v0zM508.8 595.2v-347.2c0-12.8 11.2-24 24-24s24 11.2 24 24v347.2c0 12.8-11.2 24-24 24s-24-11.2-24-24v0zM152 646.4l147.2 46.4v-500.8h-147.2v454.4z" />
<glyph unicode="&#xe908;" glyph-name="embarques" d="M936 190.4h-835.2c-27.2 0-49.6-22.4-49.6-49.6v-84.8c0-27.2 22.4-49.6 49.6-49.6h835.2c27.2 0 49.6 22.4 49.6 49.6v84.8c0 27.2-22.4 49.6-49.6 49.6zM320 68.8h-216v59.2h216v-59.2zM627.2 68.8h-216v59.2h216v-59.2zM932.8 68.8h-216v59.2h216v-59.2zM152 888v-664h732.8v664h-732.8zM259.2 400v-136h-43.2v136h-20.8l41.6 72 41.6-72h-19.2zM512 760h-64v89.6h64v-89.6zM588.8 760h-64v89.6h64v-89.6z" />
<glyph unicode="&#xe909;" glyph-name="equipo-remolques" d="M353.6 664h158.4v-48h-108.8v-16h108.8v-32h-108.8v-16h108.8v-35.2h-108.8v-16h108.8v-33.6h-108.8v-16h140.8v212.8h164.8v-48h-108.8v-16h108.8v-32h-108.8v-16h108.8v-35.2h-108.8v-16h108.8v-33.6h-108.8v-16h139.2v212.8h161.6v-48h-108.8v-16h108.8v-32h-108.8v-16h108.8v-35.2h-108.8v-16h108.8v-33.6h-108.8v-16h139.2v212.8h62.4v-259.2h-32v-41.6h14.4v-80h-3.2c-3.2-14.4-11.2-28.8-20.8-38.4-14.4-14.4-33.6-22.4-56-22.4s-41.6 9.6-56 22.4c-11.2 11.2-17.6 24-20.8 38.4h-12.8c-3.2-14.4-11.2-28.8-20.8-38.4-14.4-14.4-33.6-22.4-56-22.4s-41.6 9.6-56 22.4c-11.2 11.2-17.6 24-20.8 38.4h-392c-3.2-14.4-11.2-27.2-20.8-36.8-16-12.8-35.2-22.4-57.6-22.4s-41.6 9.6-56 22.4c-9.6 9.6-17.6 22.4-20.8 36.8h-78.4v68.8h24v112l4.8 6.4 70.4 110.4 6.4 11.2c80 1.6 60.8 1.6 185.6 3.2v-230.4h81.6v41.6h-48v257.6h1.6zM232 542.4v-94.4h36.8v94.4h-36.8zM216 448v94.4l-54.4-1.6-59.2-91.2v-1.6h113.6zM926.4 331.2c-8 8-19.2 12.8-32 12.8s-24-4.8-32-12.8c-8-8-12.8-19.2-12.8-32s4.8-24 12.8-32c8-8 19.2-12.8 32-12.8s24 4.8 32 12.8c8 8 12.8 19.2 12.8 32s-4.8 24-12.8 32v0zM760 331.2c-8 8-19.2 12.8-32 12.8s-24-4.8-32-12.8c-8-8-12.8-19.2-12.8-32s4.8-24 12.8-32c8-8 19.2-12.8 32-12.8s24 4.8 32 12.8c8 8 12.8 19.2 12.8 32s-4.8 24-12.8 32v0zM214.4 334.4c-8 8-19.2 12.8-32 12.8s-24-4.8-32-12.8c-8-8-12.8-19.2-12.8-32s4.8-24 12.8-32c8-8 19.2-12.8 32-12.8s24 4.8 32 12.8c8 8 12.8 19.2 12.8 32s-4.8 24-12.8 32z" />
<glyph unicode="&#xe90a;" glyph-name="experiencia" d="M16-24v724.8c0 0 131.2 217.6 472 217.6 369.6 0 472-224 472-224v-716.8h-153.6l-3.2 585.6-616 3.2v-588.8h-171.2zM236.8 296h110.4v-88h-110.4v88zM368 296h110.4v-88h-110.4v88zM236.8 187.2h110.4v-88h-110.4v88zM368 187.2h110.4v-88h-110.4v88zM236.8 81.6h110.4v-88h-110.4v88zM368 81.6h110.4v-88h-110.4v88zM497.6 81.6h110.4v-88h-110.4v88zM497.6 184h110.4v-88h-110.4v88zM624 81.6h110.4v-88h-110.4v88z" />
<glyph unicode="&#xe90b;" glyph-name="Iconstarifas" d="M102.4 265.6l248-164.8 219.2 99.2v38.4l-222.4-104-224 140.8-20.8-9.6zM744 280l172.8 78.4-40 24-132.8-62.4v-40zM571.2 395.2l-224-105.6-225.6 142.4-19.2-8 248-166.4 220.8 100.8v36.8zM747.2 438.4l169.6 78.4-40 22.4-129.6-60.8v-40zM750.4 596.8l166.4 75.2-256 148.8-169.6-72 259.2-152zM433.6 782.4l219.2 94.4 12.8 4.8 11.2-6.4 313.6-180.8-1.6-102.4-49.6-24 52.8-30.4-1.6-102.4-51.2-24 54.4-30.4-1.6-102.4-646.4-302.4-307.2 193.6-4.8 126.4 32 14.4-27.2 17.6-4.8 126.4 32 12.8-27.2 17.6-4.8 126.4 240 104-1.6 1.6 158.4 67.2 3.2-1.6zM329.6 678.4l-227.2-97.6 248-164.8 222.4 100.8-243.2 161.6zM270.4 636.8c-1.6 0-1.6-1.6-3.2-1.6s-1.6-1.6-3.2-1.6c-1.6 0-1.6-1.6-3.2-1.6 0 0-1.6-1.6-1.6-1.6-1.6-1.6-1.6-3.2-3.2-4.8 0-1.6-1.6-3.2-1.6-4.8s0-3.2 0-4.8c0-1.6 1.6-3.2 1.6-4.8 1.6-1.6 1.6-3.2 3.2-3.2 1.6-1.6 3.2-3.2 3.2-3.2 1.6-1.6 3.2-1.6 4.8-3.2s3.2-1.6 4.8-3.2c1.6 0 3.2-1.6 4.8-1.6s3.2-1.6 4.8-1.6c1.6 0 3.2-1.6 4.8-1.6s3.2-1.6 4.8-1.6l-6.4-3.2 9.6-6.4 11.2 4.8c1.6 0 3.2-1.6 4.8-1.6s3.2-1.6 3.2-1.6c1.6 0 3.2-1.6 3.2-1.6 1.6 0 1.6-1.6 3.2-1.6s1.6-1.6 3.2-1.6c1.6 0 1.6-1.6 1.6-1.6 0-1.6 1.6-1.6 1.6-3.2s0-1.6 0-3.2c0 0 0-1.6 0-1.6s0-1.6 0-1.6c0 0 0 0 0-1.6 0 0 0 0 0 0l24-3.2c0 0 0 1.6 0 1.6s0 1.6 0 1.6c0 0 0 1.6 0 1.6s0 1.6 0 1.6c0 0 0 1.6 0 1.6s0 1.6 1.6 1.6c0 0 0 1.6 1.6 1.6 0 0 1.6 1.6 1.6 1.6s0 0 0 0 0 0 0 0 0 0 0 0 0 0 0 0c1.6 0 3.2 1.6 4.8 1.6s3.2 0 4.8 1.6c1.6 0 3.2 0 4.8 0s3.2 0 3.2 0 3.2 0 6.4 1.6c1.6 0 3.2 0 4.8 1.6 1.6 0 3.2 0 4.8 1.6 1.6 0 3.2 1.6 3.2 1.6 1.6 0 1.6 1.6 3.2 1.6 0 1.6 1.6 1.6 1.6 3.2s1.6 1.6 1.6 3.2c0 1.6 0 3.2 0 4.8l-24 1.6c0 0 0-1.6 0-1.6s0-1.6 0-1.6c0 0 0 0 0-1.6 0 0 0 0-1.6-1.6 0 0-1.6 0-1.6 0s-1.6 0-1.6 0c0 0-1.6 0-1.6 0s-1.6 0-1.6 0-3.2 0-4.8 0c-1.6 0-3.2 0-6.4-1.6-1.6 0-4.8-1.6-6.4-1.6s-4.8-1.6-6.4-1.6h-1.6c0 0 0 0 0 0s0 0 0 0 0 0 0 0 0 0-1.6 0-1.6 1.6-3.2 1.6c-1.6 0-1.6 1.6-3.2 1.6s-3.2 1.6-3.2 1.6c-1.6 0-3.2 1.6-4.8 1.6l20.8 9.6-9.6 4.8-24-11.2c0 0-1.6 0-1.6 0s-1.6 0-1.6 0c0 0-1.6 0-1.6 0s-1.6 0-1.6 0-3.2 0-4.8 1.6c-1.6 0-3.2 1.6-4.8 1.6s-3.2 1.6-3.2 1.6c-1.6 0-3.2 1.6-3.2 1.6-1.6 0-1.6 1.6-3.2 1.6s-1.6 1.6-3.2 1.6c-1.6 0-1.6 1.6-1.6 1.6s-1.6 1.6-1.6 1.6c0 0 0 1.6-1.6 1.6 0 0 0 1.6 0 1.6s0 1.6 0 1.6c0 0 0 1.6 1.6 1.6 0 0 0 1.6 1.6 1.6 0 0 1.6 1.6 1.6 1.6s1.6 1.6 1.6 1.6c0 0 1.6 1.6 1.6 1.6 1.6 0 1.6 1.6 3.2 1.6s1.6 0 3.2 1.6c1.6 0 1.6 0 3.2 0s1.6 0 3.2 0 1.6 0 3.2 0 3.2 0 3.2 0 3.2 0 3.2 0 3.2 0 3.2-1.6l9.6 11.2c-3.2 0-4.8 1.6-8 1.6s-4.8 0-8 1.6c-3.2 0-4.8 0-8 0s-4.8 0-6.4 0-4.8 0-8-1.6c-1.6 0-4.8-1.6-6.4-1.6s-4.8-1.6-6.4-1.6c4.8 3.2 1.6 1.6 0 1.6zM313.6 520c-4.8-3.2-8-6.4-9.6-9.6s-3.2-8-1.6-11.2c0-3.2 1.6-8 4.8-11.2s6.4-8 9.6-11.2l-9.6-4.8 9.6-6.4 8 4.8c0 0 1.6-1.6 1.6-1.6s1.6-1.6 1.6-1.6c0 0 1.6 0 1.6-1.6 0 0 1.6 0 1.6-1.6l-9.6-4.8 9.6-6.4 9.6 4.8c6.4-3.2 12.8-4.8 19.2-6.4s12.8-3.2 20.8-3.2c6.4 0 12.8 0 19.2 1.6s12.8 3.2 17.6 6.4c0 0 0 0 1.6 0 0 0 0 0 0 0s0 0 0 0 0 0 0 0c1.6 1.6 4.8 3.2 6.4 4.8s3.2 3.2 3.2 4.8c1.6 1.6 1.6 3.2 1.6 6.4 0 1.6 0 3.2 0 6.4h-20.8c0-1.6 0-1.6 0-3.2s-1.6-1.6-1.6-3.2c0-1.6-1.6-1.6-3.2-3.2s-1.6-1.6-3.2-3.2c0 0 0 0 0 0s0 0 0 0 0 0 0 0 0 0 0 0c-3.2-1.6-6.4-3.2-9.6-3.2-1.6 1.6-4.8 1.6-9.6 1.6-3.2 0-8 0-12.8 1.6-4.8 0-8 1.6-11.2 3.2l38.4 19.2-9.6 6.4-40-20.8c0 0-1.6 0-1.6 1.6 0 0-1.6 0-1.6 1.6 0 0-1.6 1.6-1.6 1.6s-1.6 1.6-1.6 1.6l40 20.8-9.6 6.4-38.4-20.8c-1.6 1.6-4.8 4.8-6.4 6.4-1.6 3.2-1.6 4.8-1.6 6.4s0 4.8 1.6 6.4c1.6 1.6 3.2 4.8 6.4 6.4 0 0 0 0 0 0s0 0 0 0 0 0 0 0 0 0 0 0c1.6 1.6 4.8 1.6 6.4 3.2 1.6 0 4.8 1.6 8 1.6s4.8 0 8 0c3.2 0 6.4 0 8 0h3.2l3.2 11.2c0 0-1.6 0-1.6 0s-1.6 0-1.6 0c0 0-1.6 0-1.6 0s-1.6 0-1.6 0c-4.8 0-8 0-12.8 0s-8 0-12.8-1.6c-3.2 0-8-1.6-11.2-1.6-3.2-1.6-6.4-1.6-9.6-3.2 0 0 0 0-1.6 0 0 0 0 0-1.6 0 1.6 0 0 0 0-1.6 0 0 0 0 0 0zM366.4 540.8l67.2-14.4-17.6-9.6 9.6-6.4 22.4 11.2 8-4.8-22.4-11.2 9.6-6.4 20.8 12.8 25.6-16 16 9.6-25.6 16 24 12.8-8 6.4-24-12.8-8 4.8 24 12.8-9.6 6.4-20.8-11.2-22.4 38.4-16-8 17.6-30.4-54.4 11.2-16-11.2zM276.8 544l-25.6 16c1.6 0 3.2 0 3.2 1.6 1.6 0 3.2 0 3.2 0 1.6 0 1.6 0 3.2 0s1.6 0 3.2 0 1.6 0 3.2 0 1.6 0 3.2 0 1.6 0 3.2-1.6c0 0 1.6 0 1.6-1.6 1.6 0 1.6-1.6 1.6-1.6s1.6-1.6 1.6-1.6c0 0 1.6-1.6 1.6-1.6s0-1.6 0-1.6c0 0 0-1.6 0-1.6s0-1.6 0-1.6c0 0 0-1.6-1.6-1.6 0-1.6-1.6-1.6-1.6-3.2zM195.2 582.4l22.4-14.4c-1.6 0-1.6 0-3.2 0s-1.6 0-3.2 0-1.6 0-3.2 0-1.6 0-3.2 0-1.6 0-3.2 0-1.6 0-1.6 0-1.6 0-1.6 1.6c0 0-1.6 0-1.6 1.6 0 0-1.6 0-1.6 1.6 0 0-1.6 1.6-1.6 1.6s0 1.6-1.6 1.6c0 0 0 1.6 0 1.6s0 1.6 0 1.6c0 0 0 1.6 0 1.6 1.6 0 1.6 0 3.2 1.6 0 0 0 0 0 0zM174.4 595.2l6.4-3.2c-1.6-1.6-3.2-1.6-4.8-3.2s-3.2-1.6-3.2-3.2-1.6-3.2-1.6-3.2 0-3.2 0-3.2 0-3.2 0-3.2 1.6-3.2 1.6-3.2 1.6-3.2 3.2-3.2 3.2-1.6 4.8-3.2c1.6-1.6 3.2-1.6 4.8-3.2s3.2-1.6 6.4-1.6c1.6 0 4.8-1.6 6.4-1.6s4.8-1.6 6.4-1.6c1.6 0 4.8 0 6.4 0 3.2 0 4.8 0 8 0s4.8 0 8 1.6c3.2 0 4.8 1.6 8 1.6l28.8-17.6c-1.6 0-1.6 0-3.2 0s-1.6 0-3.2 0-1.6 0-3.2 0-1.6 0-3.2 0-1.6 0-3.2 0-1.6 0-3.2 0-1.6 0-3.2 1.6c-1.6 0-1.6 0-3.2 1.6l-16-9.6c3.2-1.6 4.8-1.6 8-3.2s4.8-1.6 8-1.6c3.2 0 4.8-1.6 8-1.6s4.8 0 8 0c3.2 0 4.8 0 8 0 1.6 0 4.8 0 6.4 0s4.8 1.6 6.4 1.6c1.6 0 4.8 1.6 6.4 1.6l12.8-8 9.6 1.6-12.8 8c1.6 1.6 3.2 3.2 4.8 4.8s3.2 3.2 3.2 4.8c1.6 1.6 1.6 3.2 1.6 4.8s0 3.2 0 4.8c0 1.6 0 3.2-1.6 4.8 0 1.6-1.6 3.2-3.2 4.8s-1.6 3.2-3.2 3.2-3.2 3.2-4.8 3.2c-1.6 1.6-3.2 1.6-4.8 3.2s-3.2 1.6-6.4 1.6c-1.6 0-3.2 1.6-6.4 1.6-1.6 0-4.8 0-6.4 1.6-1.6 0-4.8 0-6.4 0-3.2 0-4.8 0-8 0s-6.4-1.6-9.6-1.6c-3.2 0-6.4-1.6-9.6-1.6l-25.6 16c1.6 0 3.2 0 4.8 0s3.2 0 4.8 0c1.6 0 3.2 0 4.8-1.6 1.6 0 3.2-1.6 4.8-1.6l14.4 9.6c-1.6 1.6-3.2 1.6-6.4 1.6-1.6 0-3.2 1.6-6.4 1.6-1.6 0-3.2 1.6-6.4 1.6-1.6 0-4.8 0-6.4 0s-4.8 0-6.4 0c-1.6 0-4.8 0-6.4 0s-4.8 0-6.4-1.6c-1.6 0-4.8-1.6-6.4-1.6l-6.4 3.2-6.4-8zM644.8 793.6c-1.6 0-1.6-1.6-3.2-1.6s-1.6-1.6-3.2-1.6c0 0-1.6-1.6-1.6-1.6s-1.6-1.6-1.6-1.6-1.6-3.2-1.6-3.2 0-3.2 0-3.2 0-3.2 0-3.2 1.6-3.2 1.6-3.2c0-1.6 1.6-1.6 3.2-3.2s1.6-1.6 3.2-3.2 3.2-1.6 4.8-3.2c1.6-1.6 3.2-1.6 4.8-3.2 1.6 0 3.2-1.6 4.8-1.6s3.2-1.6 4.8-1.6c1.6 0 3.2-1.6 4.8-1.6s3.2-1.6 4.8-1.6l-6.4-3.2 8-4.8 9.6 4.8c1.6 0 3.2-1.6 3.2-1.6 1.6 0 3.2-1.6 3.2-1.6 1.6 0 1.6-1.6 3.2-1.6s1.6-1.6 3.2-1.6c1.6 0 1.6-1.6 3.2-1.6 0 0 1.6-1.6 1.6-1.6s1.6-1.6 1.6-3.2c0-1.6 0-1.6 0-3.2 0 0 0-1.6 0-1.6s0-1.6 0-1.6c0 0 0 0 0-1.6 0 0 0 0 0 0l20.8-1.6c0 0 0 1.6 0 1.6s0 1.6 0 1.6c0 0 0 1.6 0 1.6s0 0 0 1.6c0 0 0 1.6 0 1.6s0 1.6 0 1.6c0 0 0 1.6 1.6 1.6 0 0 0 0 1.6 1.6 0 0 0 0 0 0s0 0 0 0 0 0 0 0 0 0 0 0c1.6 0 3.2 1.6 4.8 1.6s3.2 0 4.8 1.6c1.6 0 3.2 0 3.2 0 1.6 0 3.2 0 3.2 0 1.6 0 3.2 0 4.8 1.6 1.6 0 3.2 0 4.8 1.6 1.6 0 3.2 0 3.2 1.6 1.6 0 1.6 1.6 3.2 1.6s1.6 1.6 1.6 1.6c0 0 1.6 1.6 1.6 3.2s1.6 1.6 1.6 3.2c0 1.6 0 3.2 0 4.8l-20.8 1.6c0 0 0-1.6 0-1.6s0-1.6 0-1.6c0 0 0 0 0-1.6 0 0 0 0-1.6 0 0 0 0 0-1.6 0 0 0-1.6 0-1.6 0s-1.6 0-1.6 0c0 0-1.6 0-1.6 0-1.6 0-3.2 0-4.8 0s-3.2 0-4.8-1.6c-1.6 0-3.2 0-4.8-1.6-1.6 0-3.2-1.6-6.4-1.6h-1.6l-3.2 1.6c-1.6 0-1.6 1.6-3.2 1.6s-1.6 1.6-3.2 1.6c-1.6 0-1.6 1.6-3.2 1.6s-1.6 1.6-3.2 1.6l19.2 9.6-8 4.8-20.8-11.2c0 0-1.6 0-1.6 0s-1.6 0-1.6 0-1.6 0-1.6 0-1.6 0-1.6 0-3.2 0-3.2 1.6c-1.6 0-3.2 1.6-3.2 1.6-1.6 0-1.6 1.6-3.2 1.6s-1.6 1.6-3.2 1.6c-1.6 0-1.6 1.6-3.2 1.6s-1.6 1.6-3.2 1.6c0 0-1.6 1.6-1.6 1.6s-1.6 1.6-1.6 1.6c0 0 0 1.6-1.6 1.6 0 0 0 1.6 0 1.6s0 1.6 0 1.6c0 0 0 1.6 1.6 1.6 0 0 0 0 1.6 1.6 0 0 1.6 0 1.6 1.6 0 0 1.6 0 1.6 1.6 0 0 1.6 1.6 1.6 1.6s1.6 1.6 3.2 1.6c1.6 0 1.6 0 3.2 1.6 1.6 0 1.6 0 3.2 0s1.6 0 3.2 0 1.6 0 3.2 0 1.6 0 3.2 0 1.6 0 3.2 0 1.6 0 3.2 0l8 9.6c-1.6 0-4.8 1.6-6.4 1.6s-4.8 0-6.4 1.6c-1.6 0-4.8 0-6.4 0s-4.8 0-6.4 0c-1.6 0-4.8 0-6.4-1.6-1.6 0-4.8-1.6-6.4-1.6s-3.2-1.6-4.8-1.6c-4.8-9.6-6.4-9.6-8-11.2zM683.2 689.6c-4.8-3.2-8-6.4-9.6-9.6s-3.2-6.4-1.6-9.6c0-3.2 1.6-6.4 4.8-11.2 1.6-3.2 4.8-6.4 9.6-9.6l-8-4.8 8-4.8 8 4.8c0 0 1.6 0 1.6-1.6 0 0 1.6 0 1.6-1.6 0 0 1.6 0 1.6-1.6 0 0 1.6 0 1.6-1.6l-8-4.8 8-4.8 9.6 4.8c4.8-1.6 11.2-4.8 17.6-4.8 6.4-1.6 12.8-1.6 17.6-1.6 6.4 0 12.8 0 17.6 1.6 6.4 1.6 11.2 3.2 16 6.4 0 0 0 0 0 0s0 0 0 0 0 0 0 0 0 0 0 0c1.6 1.6 3.2 3.2 4.8 4.8s3.2 3.2 3.2 4.8c1.6 1.6 1.6 3.2 1.6 4.8s0 3.2 0 4.8h-19.2c0-1.6 0-1.6 0-3.2s0-1.6-1.6-3.2c0-1.6-1.6-1.6-1.6-3.2-1.6-1.6-1.6-1.6-3.2-1.6 0 0 0 0 0 0s0 0 0 0 0 0 0 0 0 0 0 0c-3.2-1.6-6.4-3.2-9.6-3.2s-6.4-1.6-9.6-1.6c-3.2 0-6.4 0-11.2 1.6-3.2 0-8 1.6-11.2 3.2l33.6 17.6-8 4.8-35.2-19.2c0 0-1.6 0-1.6 1.6 0 0-1.6 0-1.6 1.6 0 0-1.6 0-1.6 1.6 0 0-1.6 0-1.6 1.6l35.2 19.2-8 4.8-35.2-17.6c-1.6 1.6-3.2 4.8-4.8 6.4s-1.6 4.8-1.6 6.4c0 1.6 0 4.8 1.6 6.4s3.2 3.2 4.8 4.8c0 0 0 0 0 0s0 0 0 0 0 0 0 0 0 0 0 0c1.6 1.6 3.2 1.6 6.4 1.6 1.6 0 4.8 1.6 6.4 1.6s4.8 0 8 0c3.2 0 4.8 0 8 0h1.6l3.2 9.6c0 0-1.6 0-1.6 0s-1.6 0-1.6 0c0 0-1.6 0-1.6 0s-1.6 0-1.6 0c-3.2 0-8 0-11.2 0s-8 0-11.2 0c-3.2 0-6.4-1.6-9.6-1.6-3.2-1.6-6.4-1.6-9.6-3.2 0 0 0 0-1.6 0 0 0 0 0-1.6 0 4.8-1.6 3.2-1.6 3.2-1.6s0 0 0 0zM729.6 708.8l60.8-12.8-16-8 8-4.8 19.2 9.6 8-4.8-19.2-9.6 9.6-6.4 19.2 9.6 24-14.4 14.4 8-24 14.4 22.4 11.2-8 6.4-22.4-11.2-8 4.8 22.4 11.2-8 4.8-19.2-9.6-19.2 33.6-14.4-8 16-27.2-48 11.2-17.6-8zM649.6 710.4l-24 14.4c1.6 0 1.6 0 3.2 0s1.6 0 3.2 0 1.6 0 3.2 0 1.6 0 3.2 0 1.6 0 3.2 0 1.6 0 3.2 0 1.6 0 1.6-1.6c0 0 1.6 0 1.6-1.6 0 0 1.6-1.6 1.6-1.6s1.6-1.6 1.6-1.6c0 0 0-1.6 1.6-1.6 0 0 0-1.6 0-1.6s0-1.6 0-1.6c0 0 0-1.6 0-1.6 0 1.6-1.6 1.6-3.2-1.6 1.6 1.6 1.6 1.6 0 0zM577.6 745.6l20.8-12.8c-1.6 0-1.6 0-3.2 0s-1.6 0-3.2 0-1.6 0-3.2 0-1.6 0-1.6 0-1.6 0-1.6 0-1.6 0-1.6 0-1.6 0-1.6 0c0 0-1.6 0-1.6 1.6 0 0-1.6 0-1.6 1.6 0 0-1.6 0-1.6 1.6 0 0 0 1.6-1.6 1.6 0 0 0 1.6 0 1.6s0 1.6 0 1.6c0 0 0 1.6 0 1.6 0-1.6 0 0 1.6 1.6-1.6-1.6-1.6 0 0 0zM558.4 756.8l6.4-3.2c-1.6-1.6-3.2-1.6-4.8-3.2s-1.6-1.6-3.2-3.2c0-1.6-1.6-1.6-1.6-3.2s0-1.6 0-3.2 0-1.6 0-3.2 1.6-1.6 1.6-3.2 1.6-1.6 3.2-3.2 3.2-1.6 4.8-3.2c1.6-1.6 3.2-1.6 4.8-3.2 1.6 0 3.2-1.6 4.8-1.6s3.2-1.6 6.4-1.6c1.6 0 3.2 0 6.4-1.6 1.6 0 4.8 0 6.4 0s4.8 0 6.4 0c1.6 0 4.8 0 6.4 1.6 3.2 0 4.8 1.6 8 1.6l25.6-16c0 0-1.6 0-3.2 0s-1.6 0-3.2 0-1.6 0-3.2 0-1.6 0-3.2 0-1.6 0-3.2 0-1.6 0-3.2 0-1.6 0-3.2 1.6c-1.6 0-1.6 0-3.2 1.6l-14.4-9.6c1.6-1.6 4.8-1.6 6.4-3.2s4.8-1.6 6.4-1.6c1.6 0 4.8-1.6 6.4-1.6s4.8 0 6.4 0c1.6 0 4.8 0 6.4 0s4.8 0 6.4 0c1.6 0 4.8 0 6.4 1.6 1.6 0 4.8 1.6 6.4 1.6l11.2-6.4 9.6 4.8-11.2 6.4c1.6 1.6 3.2 3.2 4.8 3.2 1.6 1.6 1.6 3.2 3.2 3.2 0 1.6 1.6 3.2 1.6 3.2 0 1.6 0 3.2 0 3.2 0 1.6 0 3.2-1.6 3.2 0 1.6-1.6 3.2-1.6 3.2-1.6 1.6-1.6 1.6-3.2 3.2s-3.2 1.6-4.8 3.2c-1.6 1.6-3.2 1.6-4.8 3.2-1.6 0-3.2 1.6-4.8 1.6s-3.2 1.6-4.8 1.6c-1.6 0-3.2 0-6.4 1.6-1.6 0-3.2 0-6.4 0-1.6 0-4.8 0-6.4 0-3.2 0-4.8 0-8-1.6-3.2 0-6.4-1.6-9.6-1.6l-24 14.4c1.6 0 3.2 0 4.8 0s3.2 0 4.8 0c1.6 0 3.2 0 4.8-1.6 1.6 0 3.2-1.6 4.8-1.6l14.4 9.6c-1.6 0-3.2 1.6-4.8 1.6s-3.2 1.6-4.8 1.6c-1.6 0-3.2 0-4.8 1.6-1.6 0-3.2 0-4.8 0s-3.2 0-4.8 0c-1.6 0-3.2 0-4.8 0s-3.2 0-4.8-1.6c-1.6 0-3.2-1.6-4.8-1.6l-6.4 3.2-14.4-1.6z" />
<glyph unicode="&#xe90c;" glyph-name="import-export" d="M459.2 179.2l185.6-196.8 16 60.8c209.6 1.6 326.4 177.6 331.2 404.8-16-184-145.6-265.6-292.8-262.4l16 65.6-256-72zM548.8 892.8c-49.6 6.4-99.2 4.8-145.6-4.8v0h-3.2c-65.6-14.4-126.4-43.2-177.6-81.6-51.2-43.2-94.4-94.4-126.4-153.6v-3.2l-1.6-1.6c-20.8-43.2-36.8-89.6-43.2-139.2v-3.2c-6.4-48-4.8-94.4 4.8-140.8v-6.4c17.6-86.4 60.8-163.2 121.6-224 67.2-67.2 156.8-113.6 256-126.4h3.2c32-4.8 62.4-4.8 92.8-1.6l-169.6 182.4-17.6 20.8 185.6 52.8v147.2h171.2c-1.6-33.6-6.4-68.8-12.8-102.4l65.6 19.2c4.8 28.8 8 56 9.6 84.8h86.4v-3.2c-1.6-16-4.8-33.6-9.6-49.6s-9.6-30.4-16-44.8c-14.4-4.8-30.4-9.6-44.8-14.4l-11.2-46.4c60.8 12.8 108.8 48 137.6 99.2 16 28.8 25.6 64 28.8 102.4l3.2 40c-1.6 16-3.2 32-6.4 46.4v4.8c-14.4 65.6-43.2 126.4-81.6 177.6-40 51.2-89.6 94.4-150.4 124.8h-3.2l-1.6 1.6c-43.2 20.8-89.6 36.8-139.2 43.2h-4.8zM849.6 472h-88c0 43.2-3.2 86.4-11.2 129.6 25.6-8 51.2-16 75.2-25.6 6.4-16 11.2-30.4 14.4-46.4v-3.2c6.4-17.6 9.6-36.8 9.6-54.4v0zM785.6 654.4c-16 4.8-32 9.6-48 14.4-4.8 19.2-9.6 36.8-16 56 8-6.4 16-14.4 24-22.4 11.2-11.2 20.8-22.4 30.4-35.2 4.8-3.2 6.4-8 9.6-12.8v0zM635.2 777.6c12.8-30.4 24-62.4 33.6-92.8-48 9.6-94.4 16-142.4 17.6v102.4c3.2 0 6.4 0 9.6-1.6v0c16-1.6 33.6-4.8 49.6-9.6 17.6-3.2 35.2-9.6 49.6-16v0zM465.6 804.8v-100.8c-41.6 0-84.8-4.8-126.4-11.2 9.6 32 20.8 64 35.2 94.4 12.8 4.8 25.6 8 40 11.2h3.2c16 3.2 32 6.4 48 6.4v0zM291.2 744c-8-22.4-14.4-44.8-20.8-67.2-24-6.4-46.4-12.8-68.8-20.8 11.2 16 24 32 38.4 46.4 11.2 11.2 22.4 20.8 35.2 30.4 6.4 3.2 11.2 8 16 11.2v0zM156.8 571.2c33.6 14.4 65.6 27.2 99.2 38.4-8-44.8-11.2-91.2-11.2-137.6h-108.8c0 1.6 0 4.8 0 6.4l1.6 1.6c0 4.8 1.6 9.6 1.6 14.4v3.2c1.6 14.4 4.8 28.8 9.6 43.2 1.6 11.2 4.8 20.8 8 30.4v0zM137.6 409.6h108.8c3.2-43.2 8-88 17.6-131.2-35.2 9.6-68.8 22.4-102.4 38.4-12.8 28.8-20.8 60.8-24 92.8v0zM209.6 230.4c22.4-8 46.4-14.4 70.4-20.8 4.8-19.2 11.2-40 17.6-59.2-20.8 12.8-40 28.8-57.6 46.4-11.2 11.2-20.8 22.4-30.4 33.6v0zM465.6 248v0c-44.8 0-91.2 4.8-134.4 14.4-11.2 49.6-19.2 97.6-22.4 147.2h156.8v-161.6zM528 640c52.8-3.2 105.6-11.2 158.4-22.4 9.6-48 14.4-97.6 14.4-145.6h-172.8v168zM323.2 625.6c48 9.6 94.4 14.4 142.4 16v-169.6h-160c1.6 51.2 6.4 102.4 17.6 153.6z" />
<glyph unicode="&#xe90d;" d="M449.6 833.6l123.2-123.2h432v-678.4h-987.2v801.6h432z" />
<glyph unicode="&#xe90e;" d="M979.2 281.6h-211.2l-17.6-33.6h-483.2l-27.2 33.6h-8l-4.8 20.8-1.6 1.6h-180.8l1.6-4.8 4.8-19.2h-1.6c1.6-4.8 1.6-11.2 8-14.4 52.8-28.8 88-80 94.4-115.2h-1.6c-11.2 0-20.8-9.6-20.8-20.8s9.6-20.8 20.8-20.8h779.2c30.4 43.2 52.8 134.4 49.6 172.8zM60.8 281.6l-4.8 16h11.2l4.8-16h-11.2zM78.4 281.6l-4.8 16h9.6l4.8-16h-9.6zM96 281.6l-4.8 16h9.6l4.8-16h-9.6zM112 281.6l-4.8 16h9.6l4.8-16h-9.6zM129.6 281.6l-4.8 16h9.6l4.8-16h-9.6zM147.2 281.6l-4.8 16h9.6l4.8-16h-9.6zM163.2 281.6l-4.8 16h9.6l3.2-16h-8zM180.8 281.6l-4.8 16h9.6l4.8-16h-9.6zM198.4 281.6l-4.8 16h9.6l4.8-16h-9.6zM211.2 297.6h11.2l3.2-16h-11.2l-3.2 16zM235.2 195.2c-8 0-14.4 6.4-14.4 12.8 0 8 6.4 12.8 14.4 12.8s14.4-6.4 14.4-12.8c-1.6-6.4-6.4-12.8-14.4-12.8zM321.6 195.2c-8 0-14.4 6.4-14.4 12.8 0 8 6.4 12.8 14.4 12.8s14.4-6.4 14.4-12.8c0-6.4-6.4-12.8-14.4-12.8zM409.6 195.2c-8 0-14.4 6.4-14.4 12.8 0 8 6.4 12.8 14.4 12.8s14.4-6.4 14.4-12.8c0-6.4-6.4-12.8-14.4-12.8zM731.2 209.6c0 4.8 0 11.2 0 16 9.6 0 17.6 0 27.2 0 0-4.8 0-11.2 0-16zM798.4 209.6c-9.6 0-17.6 0-27.2 0 0 4.8 0 11.2 0 16 9.6 0 17.6 0 27.2 0 0-4.8 0-9.6 0-16zM838.4 209.6c-9.6 0-17.6 0-27.2 0 0 4.8 0 11.2 0 16 9.6 0 17.6 0 27.2 0 0-4.8 0-9.6 0-16zM878.4 209.6c-9.6 0-17.6 0-27.2 0 0 4.8 0 11.2 0 16 9.6 0 17.6 0 27.2 0 0-4.8 0-9.6 0-16zM920 209.6h-27.2v16h27.2v-16z" />
<glyph unicode="&#xe90f;" d="M768 299.2h172.8v150.4c0 6.4-4.8 12.8-11.2 12.8h-20.8v41.6c0 9.6-6.4 17.6-16 17.6h-108.8c-9.6 0-16-8-16-17.6v-204.8zM875.2 505.6h20.8v-32h-20.8v32zM843.2 505.6h20.8v-32h-20.8v32zM812.8 505.6h20.8v-32h-20.8v32zM782.4 505.6h20.8v-32h-20.8v32z" />
<glyph unicode="&#xe910;" d="M283.2 456h217.6v-110.4h-217.6v110.4z" />
<glyph unicode="&#xe911;" d="M283.2 337.6h217.6v-70.4h-217.6v70.4z" />
<glyph unicode="&#xe912;" d="M510.4 456h217.6v-110.4h-217.6v110.4z" />
<glyph unicode="&#xe913;" d="M510.4 337.6h217.6v-70.4h-217.6v70.4z" />
<glyph unicode="&#xe914;" d="M660.8 884.8h-40v22.4c0 17.6-14.4 33.6-33.6 33.6h-172.8c-17.6 0-33.6-14.4-33.6-33.6v-22.4h-17.6c-30.4 0-56-25.6-56-56v-76.8c0-30.4 25.6-56 56-56h297.6c30.4 0 56 25.6 56 56v78.4c-1.6 28.8-27.2 54.4-56 54.4z" />
<glyph unicode="&#xe915;" d="M779.2 774.4h-46.4v-52.8c0-27.2-22.4-49.6-49.6-49.6h-344c-27.2 0-49.6 22.4-49.6 49.6v52.8h-56c-35.2 0-64-28.8-64-64v-686.4c0-35.2 28.8-64 64-64h544c35.2 0 64 28.8 64 64v688c0 33.6-28.8 62.4-62.4 62.4z" />
<glyph unicode="&#xe916;" d="M804.8 310.4h-140.8l-11.2-22.4h-320l-17.6 22.4h-4.8l-3.2 14.4v1.6h-121.6l1.6-3.2 3.2-12.8h-1.6c1.6-3.2 1.6-8 4.8-9.6 35.2-19.2 57.6-52.8 62.4-76.8v0c-8 0-12.8-6.4-12.8-12.8 0-8 6.4-12.8 12.8-12.8h515.2c20.8 27.2 35.2 86.4 33.6 112zM195.2 310.4l-3.2 11.2h6.4l3.2-11.2h-6.4zM206.4 310.4l-3.2 11.2h6.4l3.2-11.2h-6.4zM217.6 310.4l-3.2 11.2h6.4l3.2-11.2h-6.4zM228.8 310.4l-3.2 11.2h6.4l3.2-11.2h-6.4zM241.6 310.4l-3.2 11.2h6.4l3.2-11.2h-6.4zM252.8 310.4l-3.2 11.2h6.4l3.2-11.2h-6.4zM264 310.4l-3.2 11.2h6.4l3.2-11.2h-6.4zM275.2 310.4l-3.2 11.2h6.4l3.2-11.2h-6.4zM286.4 310.4l-3.2 11.2h6.4l3.2-11.2h-6.4zM294.4 321.6h8l3.2-11.2h-8l-3.2 11.2zM310.4 254.4c-4.8 0-9.6 3.2-9.6 9.6 0 4.8 4.8 9.6 9.6 9.6s9.6-3.2 9.6-9.6c0-6.4-4.8-9.6-9.6-9.6zM368 254.4c-4.8 0-9.6 3.2-9.6 9.6 0 4.8 4.8 9.6 9.6 9.6s9.6-3.2 9.6-9.6c0-6.4-3.2-9.6-9.6-9.6zM427.2 254.4c-4.8 0-9.6 3.2-9.6 9.6 0 4.8 4.8 9.6 9.6 9.6s9.6-3.2 9.6-9.6c0-6.4-4.8-9.6-9.6-9.6zM640 264c0 3.2 0 6.4 0 11.2 6.4 0 11.2 0 17.6 0 0-3.2 0-6.4 0-11.2zM684.8 264c-6.4 0-11.2 0-17.6 0 0 3.2 0 6.4 0 11.2 6.4 0 11.2 0 17.6 0 0-4.8 0-8 0-11.2zM712 264c-6.4 0-11.2 0-17.6 0 0 3.2 0 6.4 0 11.2 6.4 0 11.2 0 17.6 0 0-4.8 0-8 0-11.2zM737.6 264c-6.4 0-11.2 0-17.6 0 0 3.2 0 6.4 0 11.2 6.4 0 11.2 0 17.6 0 0-4.8 0-8 0-11.2zM764.8 264h-17.6v11.2h17.6v-11.2z" />
<glyph unicode="&#xe917;" d="M664 323.2h113.6v100.8c0 4.8-3.2 8-8 8h-14.4v27.2c0 6.4-4.8 11.2-11.2 11.2h-72c-6.4 0-11.2-4.8-11.2-11.2v-136zM736 459.2h14.4v-22.4h-14.4v22.4zM715.2 459.2h14.4v-22.4h-14.4v22.4zM694.4 459.2h14.4v-22.4h-14.4v22.4zM673.6 459.2h14.4v-22.4h-14.4v22.4z" />
<glyph unicode="&#xe918;" d="M342.4 427.2h144v-73.6h-144v73.6z" />
<glyph unicode="&#xe919;" d="M342.4 348.8h144v-46.4h-144v46.4z" />
<glyph unicode="&#xe91a;" d="M492.8 427.2h144v-73.6h-144v73.6z" />
<glyph unicode="&#xe91b;" d="M492.8 348.8h144v-46.4h-144v46.4z" />
<glyph unicode="&#xe91c;" glyph-name="seguridad" d="M25.6 587.2h36.8v-441.6h-36.8v441.6zM273.6 616l46.4 144 678.4-200-27.2-91.2-244.8 11.2zM889.6 374.4l25.6 80h-52.8l-16-56zM561.6 441.6l252.8-75.2 27.2 88h-121.6l-456 142.4-19.2-60.8 172.8-56-22.4-49.6h86.4c0 0 49.6-12.8 49.6-56 0-83.2-88-80-88-80s56-9.6 94.4 32c35.2 40 24 115.2 24 115.2zM163.2 518.4c4.8 30.4-11.2 60.8-24 86.4-22.4 40-32 64 1.6 88 32 22.4 67.2-24 67.2-25.6l14.4 11.2c-16 22.4-54.4 56-92.8 30.4-48-33.6-25.6-75.2-6.4-110.4 12.8-24 27.2-49.6 22.4-75.2l17.6-4.8zM248 596.8l-33.6 6.4 28.8 108.8h38.4zM83.2 523.2v-326.4c0 0 136 24 136 163.2 1.6 150.4-136 163.2-136 163.2zM467.2 414.4h-235.2v-100.8h235.2c0 0 43.2 8 43.2 51.2 0 44.8-43.2 49.6-43.2 49.6zM462.4 332.8c-17.6 0-32 14.4-32 32s14.4 32 32 32c17.6 0 32-14.4 32-32s-14.4-32-32-32z" />
<glyph unicode="&#xe91d;" glyph-name="serv-adicionales" d="M560 168h4.8v54.4h-110.4v-54.4h105.6zM553.6 211.2v-9.6l-8-25.6h-4.8l12.8 35.2zM542.4 211.2l-11.2-33.6h-4.8l11.2 33.6h4.8zM528 211.2l-11.2-33.6h-4.8l11.2 33.6h4.8zM512 211.2l-11.2-33.6h-4.8l11.2 33.6h4.8zM497.6 211.2l-11.2-33.6h-4.8l11.2 33.6h4.8zM481.6 211.2l-11.2-33.6h-4.8l11.2 33.6h4.8zM464 211.2h4.8l-4.8-11.2v11.2zM560 228.8h4.8v84.8h-110.4v-84.8h105.6zM472 304h4.8l-12.8-40v12.8l8 27.2zM545.6 238.4h-4.8l14.4 41.6v-12.8l-9.6-28.8zM531.2 238.4h-4.8l20.8 64h4.8l-20.8-64zM515.2 238.4h-4.8l20.8 64h4.8l-20.8-64zM500.8 238.4h-4.8l20.8 64h6.4l-22.4-64zM484.8 238.4h-4.8l20.8 64h4.8l-20.8-64zM470.4 238.4h-4.8l20.8 64h4.8l-20.8-64zM683.2 168h4.8v54.4h-112v-54.4h107.2zM678.4 211.2v-9.6l-8-25.6h-4.8l12.8 35.2zM665.6 211.2l-11.2-33.6h-4.8l11.2 33.6h4.8zM651.2 211.2l-11.2-33.6h-4.8l11.2 33.6h4.8zM636.8 211.2l-11.2-33.6h-6.4l11.2 33.6h6.4zM620.8 211.2l-11.2-33.6h-4.8l11.2 33.6h4.8zM606.4 211.2l-11.2-33.6h-4.8l11.2 33.6h4.8zM587.2 211.2h4.8l-4.8-12.8v12.8zM683.2 228.8h4.8v84.8h-110.4v-84.8h105.6zM596.8 304h4.8l-12.8-40v12.8l8 27.2zM668.8 238.4h-4.8l14.4 41.6v-12.8l-9.6-28.8zM654.4 238.4h-4.8l20.8 64h4.8l-20.8-64zM640 238.4h-4.8l20.8 64h4.8l-20.8-64zM624 238.4h-6.4l20.8 64h6.4l-20.8-64zM609.6 238.4h-4.8l20.8 64h4.8l-20.8-64zM593.6 238.4h-4.8l20.8 64h4.8l-20.8-64zM803.2 168h4.8v54.4h-110.4v-54.4h105.6zM798.4 211.2v-9.6l-8-25.6h-4.8l12.8 35.2zM787.2 211.2l-11.2-33.6h-4.8l11.2 33.6h4.8zM771.2 211.2l-11.2-33.6h-4.8l11.2 33.6h4.8zM756.8 211.2l-11.2-33.6h-6.4l11.2 33.6h6.4zM742.4 211.2l-11.2-33.6h-4.8l11.2 33.6h4.8zM726.4 211.2l-11.2-33.6h-4.8l11.2 33.6h4.8zM707.2 211.2h4.8l-4.8-12.8v12.8zM803.2 228.8h4.8v84.8h-110.4v-84.8h105.6zM716.8 304h4.8l-12.8-40v12.8l8 27.2zM788.8 238.4h-4.8l14.4 41.6v-12.8l-9.6-28.8zM774.4 238.4h-4.8l20.8 64h4.8l-20.8-64zM760 238.4h-4.8l20.8 64h4.8l-20.8-64zM745.6 238.4h-6.4l20.8 64h6.4l-20.8-64zM729.6 238.4h-4.8l20.8 64h4.8l-20.8-64zM715.2 238.4h-4.8l20.8 64h4.8l-20.8-64zM998.4 187.2h-164.8l-12.8-25.6h-376l-20.8 25.6h-6.4l-3.2 16v1.6h-139.2l1.6-3.2 4.8-14.4h-1.6c1.6-3.2 1.6-9.6 6.4-11.2 41.6-22.4 68.8-62.4 73.6-89.6v0c-8 0-16-6.4-16-16s6.4-16 16-16h600c22.4 32 40 104 38.4 132.8zM283.2 187.2l-3.2 12.8h8l3.2-12.8h-8zM297.6 187.2l-3.2 12.8h8l3.2-12.8h-8zM310.4 187.2l-3.2 12.8h8l3.2-12.8h-8zM324.8 187.2l-3.2 12.8h8l3.2-12.8h-8zM337.6 187.2l-3.2 12.8h8l3.2-12.8h-8zM350.4 187.2l-3.2 12.8h8l3.2-12.8h-8zM363.2 187.2l-3.2 12.8h8l3.2-12.8h-8zM377.6 187.2l-3.2 12.8h8l3.2-12.8h-8zM390.4 187.2l-3.2 12.8h8l3.2-12.8h-8zM400 200h9.6l3.2-12.8h-9.6l-3.2 12.8zM419.2 121.6c-6.4 0-11.2 4.8-11.2 9.6 0 6.4 4.8 9.6 11.2 9.6s11.2-4.8 11.2-9.6c0-6.4-4.8-9.6-11.2-9.6zM486.4 121.6c-6.4 0-11.2 4.8-11.2 9.6 0 6.4 4.8 9.6 11.2 9.6s11.2-4.8 11.2-9.6c0-6.4-4.8-9.6-11.2-9.6zM555.2 121.6c-6.4 0-11.2 4.8-11.2 9.6 0 6.4 4.8 9.6 11.2 9.6s11.2-4.8 11.2-9.6c0-6.4-4.8-9.6-11.2-9.6zM795.2 132.8h-20.8v12.8h20.8v-12.8zM825.6 132.8c-6.4 0-14.4 0-20.8 0 0 4.8 0 8 0 12.8 6.4 0 14.4 0 20.8 0 0-4.8 0-9.6 0-12.8zM857.6 132.8c-6.4 0-14.4 0-20.8 0 0 4.8 0 8 0 12.8 6.4 0 14.4 0 20.8 0 0-4.8 0-9.6 0-12.8zM888 132.8c-6.4 0-14.4 0-20.8 0 0 4.8 0 8 0 12.8 6.4 0 14.4 0 20.8 0 0-4.8 0-9.6 0-12.8zM920 132.8c-6.4 0-14.4 0-20.8 0 0 4.8 0 8 0 12.8 6.4 0 14.4 0 20.8 0 0-4.8 0-9.6 0-12.8zM952 132.8h-20.8v12.8h20.8v-12.8zM833.6 201.6h136v118.4c0 4.8-4.8 9.6-9.6 9.6h-16v32c0 8-4.8 14.4-12.8 14.4h-84.8c-6.4 0-12.8-6.4-12.8-14.4v-160zM916.8 361.6h16v-25.6h-16v25.6zM892.8 361.6h16v-25.6h-16v25.6zM868.8 361.6h16v-25.6h-16v25.6zM844.8 361.6h16v-25.6h-16v25.6zM216-54.4l-3.2 14.4 16 3.2 3.2-14.4-16-3.2zM209.6-24l-3.2 14.4 16 3.2 3.2-14.4-16-3.2zM203.2 6.4l-3.2 14.4 16 3.2 3.2-14.4-16-3.2zM196.8 35.2l-3.2 14.4 16 3.2 3.2-14.4-16-3.2zM190.4 65.6l-3.2 14.4 16 3.2 3.2-14.4-16-3.2zM184 96l-1.6 16 16 3.2 3.2-14.4-17.6-4.8zM179.2 126.4l-3.2 16 16 3.2 3.2-14.4-16-4.8zM174.4 156.8l-1.6 16 16 3.2 1.6-14.4-16-4.8zM169.6 187.2l-1.6 16 16 1.6 1.6-14.4-16-3.2zM164.8 217.6l-1.6 16 16 1.6 1.6-14.4-16-3.2zM161.6 249.6l-1.6 16 16 1.6 1.6-16-16-1.6zM158.4 280l-1.6 16 16 1.6 1.6-16-16-1.6zM155.2 310.4c0 4.8 0 9.6-1.6 16l16 1.6c0-4.8 0-9.6 1.6-16l-16-1.6zM153.6 340.8c0 4.8 0 9.6 0 16h16c0-4.8 0-9.6 0-16h-16zM152 372.8c0 4.8 0 9.6 0 16h16c0-4.8 0-9.6 0-16h-16zM168 403.2h-16c0 4.8 0 11.2 0 16h16c0-6.4 0-11.2 0-16zM152 433.6v0c0 6.4 0 11.2 1.6 16l16-1.6c0-4.8 0-8-1.6-12.8l-16-1.6zM171.2 464l-16 1.6c0 4.8 1.6 9.6 1.6 16l16-1.6c0-6.4-1.6-11.2-1.6-16zM174.4 494.4l-16 1.6c0 4.8 1.6 9.6 1.6 16l16-1.6c0-6.4-1.6-11.2-1.6-16zM179.2 524.8l-16 3.2c1.6 4.8 1.6 9.6 3.2 16l16-3.2c-1.6-6.4-3.2-11.2-3.2-16zM184 553.6l-16 3.2c1.6 4.8 1.6 9.6 3.2 16l16-3.2c-1.6-4.8-3.2-9.6-3.2-16zM190.4 584l-16 3.2c1.6 4.8 1.6 9.6 3.2 14.4l16-3.2c-1.6-4.8-3.2-9.6-3.2-14.4zM196.8 614.4l-16 4.8c1.6 4.8 3.2 9.6 4.8 14.4l16-4.8c-1.6-4.8-3.2-9.6-4.8-14.4zM204.8 643.2l-16 4.8c1.6 4.8 3.2 9.6 4.8 14.4l16-4.8c-1.6-4.8-3.2-9.6-4.8-14.4zM214.4 672l-14.4 4.8c1.6 4.8 3.2 9.6 4.8 14.4l14.4-4.8c-1.6-4.8-3.2-9.6-4.8-14.4zM224 700.8l-14.4 6.4c1.6 4.8 3.2 9.6 6.4 14.4l14.4-6.4c-1.6-4.8-3.2-9.6-6.4-14.4zM235.2 729.6l-14.4 6.4c1.6 4.8 4.8 9.6 6.4 14.4l14.4-6.4c-1.6-6.4-3.2-9.6-6.4-14.4zM248 756.8l-14.4 6.4c1.6 4.8 4.8 9.6 6.4 14.4l14.4-6.4c-1.6-4.8-3.2-9.6-6.4-14.4zM262.4 784l-14.4 8c3.2 4.8 4.8 9.6 8 14.4l14.4-8c-4.8-4.8-6.4-9.6-8-14.4zM276.8 811.2l-14.4 8c3.2 4.8 4.8 9.6 8 12.8l14.4-8c-3.2-4.8-6.4-9.6-8-12.8zM291.2 836.8l-12.8 8c3.2 4.8 6.4 9.6 8 12.8l12.8-9.6c-1.6-3.2-4.8-6.4-8-11.2zM308.8 862.4l-12.8 9.6c3.2 3.2 4.8 8 8 11.2l12.8-9.6c-1.6-3.2-4.8-8-8-11.2zM326.4 886.4l-12.8 9.6c3.2 4.8 6.4 8 9.6 12.8l12.8-9.6c-3.2-4.8-6.4-8-9.6-12.8zM345.6 910.4l-12.8 11.2c3.2 4.8 8 8 11.2 11.2l11.2-11.2c-3.2-3.2-6.4-8-9.6-11.2zM366.4 932.8l-11.2 11.2c3.2 3.2 6.4 4.8 6.4 4.8l11.2-12.8c-1.6 0-3.2-1.6-6.4-3.2zM484.8 388.8h-16v8l16-1.6zM486.4 411.2l-16 1.6c0 4.8 1.6 9.6 1.6 16l16-1.6c0-6.4-1.6-11.2-1.6-16zM491.2 441.6l-16 3.2c1.6 4.8 1.6 9.6 3.2 16l16-3.2c-1.6-6.4-3.2-11.2-3.2-16zM496 470.4l-16 3.2c1.6 4.8 1.6 9.6 3.2 16l16-3.2c0-4.8-1.6-11.2-3.2-16zM504 500.8l-16 4.8c1.6 4.8 3.2 9.6 4.8 14.4l16-4.8c-1.6-4.8-3.2-9.6-4.8-14.4zM512 529.6l-14.4 4.8c1.6 4.8 3.2 9.6 4.8 14.4l14.4-4.8c-1.6-4.8-3.2-9.6-4.8-14.4zM523.2 558.4l-14.4 6.4c1.6 4.8 3.2 9.6 6.4 14.4l14.4-6.4c-3.2-4.8-4.8-9.6-6.4-14.4zM534.4 585.6l-14.4 6.4c1.6 4.8 4.8 9.6 6.4 14.4l14.4-6.4c-1.6-4.8-3.2-9.6-6.4-14.4zM548.8 612.8l-14.4 8c3.2 4.8 4.8 9.6 8 14.4l14.4-8c-3.2-4.8-4.8-9.6-8-14.4zM564.8 638.4l-14.4 8c3.2 4.8 4.8 9.6 8 12.8l12.8-8c-1.6-3.2-4.8-8-6.4-12.8zM580.8 664l-12.8 9.6c3.2 4.8 6.4 8 9.6 12.8l12.8-9.6c-3.2-3.2-6.4-8-9.6-12.8zM598.4 689.6l-12.8 9.6c3.2 4.8 6.4 8 9.6 12.8l12.8-9.6c-3.2-4.8-6.4-9.6-9.6-12.8zM617.6 712l-12.8 11.2c3.2 3.2 6.4 8 11.2 11.2l11.2-11.2c-1.6-3.2-6.4-6.4-9.6-11.2zM638.4 734.4l-11.2 11.2c3.2 3.2 8 8 11.2 11.2l11.2-11.2c-3.2-3.2-8-6.4-11.2-11.2zM660.8 756.8l-11.2 11.2c3.2 3.2 8 6.4 11.2 11.2l11.2-11.2c-4.8-4.8-8-8-11.2-11.2zM683.2 776l-11.2 12.8c3.2 3.2 8 6.4 12.8 9.6l9.6-12.8c-3.2-3.2-8-6.4-11.2-9.6zM707.2 795.2l-9.6 12.8c4.8 3.2 8 6.4 12.8 9.6l9.6-12.8c-4.8-3.2-9.6-6.4-12.8-9.6zM731.2 814.4l-9.6 12.8c4.8 3.2 8 6.4 12.8 9.6l9.6-12.8c-4.8-4.8-8-6.4-12.8-9.6zM756.8 830.4l-8 12.8c3.2 4.8 8 6.4 12.8 9.6l8-12.8c-4.8-3.2-9.6-6.4-12.8-9.6zM782.4 848l-8 14.4c4.8 1.6 9.6 3.2 12.8 6.4l8-14.4c-3.2-1.6-8-4.8-12.8-6.4zM809.6 862.4l-8 14.4c4.8 3.2 9.6 4.8 14.4 8l8-14.4c-6.4-3.2-11.2-4.8-14.4-8zM836.8 876.8l-6.4 14.4c4.8 1.6 9.6 4.8 14.4 6.4l6.4-14.4c-6.4-1.6-11.2-4.8-14.4-6.4zM864 889.6l-6.4 14.4c4.8 1.6 9.6 4.8 14.4 6.4l6.4-14.4c-4.8-1.6-9.6-4.8-14.4-6.4zM891.2 902.4l-6.4 14.4c4.8 1.6 9.6 3.2 14.4 6.4l6.4-14.4c-4.8-3.2-9.6-4.8-14.4-6.4zM920 913.6l-4.8 14.4c4.8 1.6 9.6 3.2 14.4 4.8l4.8-14.4c-4.8-1.6-9.6-3.2-14.4-4.8zM948.8 923.2l-4.8 14.4c4.8 1.6 9.6 3.2 14.4 4.8l4.8-16c-4.8 0-9.6-1.6-14.4-3.2zM977.6 932.8l-4.8 16c4.8 1.6 11.2 3.2 14.4 4.8l4.8-16c-3.2-3.2-8-3.2-14.4-4.8zM1008 939.2l-3.2 16c4.8 1.6 8 1.6 8 1.6l3.2-16c-1.6 0-3.2 0-8-1.6zM16 273.6c-3.2 3.2-6.4 4.8-6.4 4.8l11.2 11.2c0 0 1.6-1.6 4.8-4.8l-9.6-11.2zM321.6 97.6c-4.8 1.6-9.6 3.2-14.4 4.8l4.8 14.4c4.8-1.6 9.6-3.2 14.4-4.8l-4.8-14.4zM292.8 107.2c-4.8 1.6-9.6 3.2-14.4 4.8l6.4 14.4c4.8-1.6 9.6-3.2 12.8-4.8l-4.8-14.4zM265.6 118.4c-4.8 1.6-9.6 3.2-12.8 6.4l6.4 14.4c4.8-1.6 9.6-3.2 12.8-4.8l-6.4-16zM238.4 129.6c-4.8 1.6-9.6 4.8-12.8 6.4l6.4 14.4c4.8-1.6 8-4.8 12.8-6.4l-6.4-14.4zM211.2 142.4c-4.8 1.6-9.6 4.8-12.8 6.4l8 14.4c4.8-1.6 8-4.8 12.8-6.4l-8-14.4zM185.6 155.2c-4.8 1.6-8 4.8-12.8 6.4l8 14.4c4.8-1.6 8-4.8 12.8-6.4l-8-14.4zM160 169.6c-4.8 3.2-8 4.8-12.8 8l8 14.4c4.8-3.2 8-4.8 12.8-8l-8-14.4zM134.4 184c-4.8 3.2-8 4.8-12.8 8l8 12.8c3.2-3.2 8-4.8 12.8-8l-8-12.8zM110.4 200c-4.8 3.2-8 4.8-12.8 8l9.6 12.8c3.2-3.2 8-4.8 12.8-8l-9.6-12.8zM84.8 217.6c-4.8 3.2-8 6.4-11.2 8l9.6 12.8c3.2-3.2 8-4.8 11.2-8l-9.6-12.8zM62.4 235.2c-4.8 3.2-8 6.4-11.2 9.6l9.6 11.2c3.2-3.2 8-6.4 11.2-9.6l-9.6-11.2zM38.4 252.8c-4.8 3.2-8 6.4-11.2 9.6l11.2 12.8c3.2-3.2 6.4-6.4 11.2-9.6l-11.2-12.8zM340.027 107.899l7.646-2.352-4.704-15.293-7.646 2.352 4.704 15.293zM16 744c-3.2 3.2-4.8 4.8-4.8 4.8l11.2 11.2c0 0 1.6-1.6 4.8-4.8l-11.2-11.2zM542.4 499.2v16c4.8 0 9.6 0 12.8 0l1.6-16h-1.6c-4.8 0-9.6 0-12.8 0zM526.4 499.2c-4.8 0-9.6 0-16 0l1.6 16c4.8 0 9.6 0 14.4 0v-16zM572.8 500.8l-1.6 16c4.8 0 9.6 0 14.4 1.6l1.6-16c-4.8-1.6-9.6-1.6-14.4-1.6zM496 500.8c-4.8 0-9.6 1.6-14.4 1.6l1.6 16c4.8 0 9.6-1.6 14.4-1.6l-1.6-16zM603.2 502.4l-1.6 16c4.8 0 9.6 1.6 14.4 1.6l1.6-16c-4.8 0-9.6-1.6-14.4-1.6zM465.6 505.6c-4.8 0-9.6 1.6-14.4 3.2l3.2 16c4.8-1.6 9.6-1.6 14.4-1.6l-3.2-17.6zM632 505.6l-1.6 16c4.8 0 9.6 1.6 14.4 1.6l1.6-16c-3.2 0-8-1.6-14.4-1.6zM662.4 508.8l-1.6 16c4.8 0 9.6 1.6 14.4 1.6l3.2-16c-6.4 0-11.2 0-16-1.6zM435.2 510.4c-4.8 1.6-9.6 1.6-14.4 3.2l3.2 16c4.8-1.6 9.6-1.6 14.4-3.2l-3.2-16zM692.8 513.6l-3.2 16c4.8 1.6 9.6 1.6 14.4 3.2l3.2-16c-4.8-1.6-9.6-1.6-14.4-3.2zM406.4 516.8c-4.8 1.6-9.6 3.2-14.4 4.8l4.8 16c4.8-1.6 9.6-3.2 14.4-3.2l-4.8-17.6zM723.2 520l-3.2 16c4.8 1.6 9.6 1.6 14.4 3.2l3.2-16c-4.8-1.6-9.6-1.6-14.4-3.2zM377.6 524.8c-4.8 1.6-9.6 3.2-14.4 4.8l4.8 14.4c4.8-1.6 9.6-3.2 14.4-4.8l-4.8-14.4zM752 526.4l-3.2 16c4.8 1.6 9.6 3.2 14.4 3.2l4.8-16c-6.4 0-11.2-1.6-16-3.2zM780.8 534.4l-4.8 16c4.8 1.6 9.6 3.2 14.4 4.8l4.8-16c-4.8-1.6-9.6-3.2-14.4-4.8zM348.8 534.4c-4.8 1.6-9.6 3.2-14.4 4.8l6.4 14.4c4.8-1.6 9.6-3.2 14.4-4.8l-6.4-14.4zM809.6 544l-4.8 16c4.8 1.6 9.6 3.2 14.4 4.8l4.8-14.4c-4.8-3.2-8-4.8-14.4-6.4zM320 545.6c-4.8 1.6-9.6 3.2-14.4 6.4l6.4 14.4c4.8-1.6 9.6-3.2 14.4-6.4l-6.4-14.4zM838.4 555.2l-6.4 14.4c4.8 1.6 9.6 3.2 14.4 6.4l6.4-14.4c-4.8-3.2-9.6-4.8-14.4-6.4zM291.2 558.4c-4.8 1.6-9.6 4.8-14.4 6.4l6.4 14.4c4.8-1.6 9.6-4.8 12.8-6.4l-4.8-14.4zM867.2 566.4l-6.4 14.4c4.8 1.6 9.6 4.8 12.8 6.4l6.4-14.4c-3.2-1.6-8-4.8-12.8-6.4zM264 571.2c-4.8 1.6-9.6 4.8-12.8 6.4l8 14.4c4.8-1.6 9.6-4.8 12.8-6.4l-8-14.4zM894.4 580.8l-8 14.4c4.8 1.6 9.6 4.8 12.8 6.4l8-14.4c-3.2-1.6-8-4.8-12.8-6.4zM236.8 585.6c-4.8 3.2-9.6 4.8-12.8 8l8 14.4c4.8-3.2 8-4.8 12.8-6.4l-8-16zM921.6 595.2l-9.6 14.4c4.8 3.2 8 4.8 12.8 8l8-12.8c-3.2-4.8-8-6.4-11.2-9.6zM211.2 600c-4.8 3.2-8 4.8-12.8 8l8 14.4c4.8-3.2 8-4.8 12.8-8l-8-14.4zM947.2 611.2l-9.6 12.8c4.8 3.2 8 6.4 11.2 8l9.6-12.8c-3.2-1.6-8-4.8-11.2-8zM185.6 616c-4.8 3.2-8 4.8-12.8 8l8 12.8 12.8-8-8-12.8zM971.2 630.4l-9.6 12.8c4.8 3.2 8 6.4 11.2 9.6l11.2-11.2c-4.8-4.8-9.6-8-12.8-11.2zM160 632c-4.8 3.2-8 6.4-12.8 8l9.6 12.8c4.8-3.2 8-4.8 12.8-8l-9.6-12.8zM134.4 649.6c-4.8 3.2-8 6.4-12.8 8l9.6 12.8c3.2-3.2 8-6.4 12.8-8l-9.6-12.8zM993.6 651.2l-11.2 11.2c3.2 3.2 8 8 9.6 11.2l11.2-11.2c-1.6-3.2-4.8-8-9.6-11.2zM110.4 667.2c-4.8 3.2-8 6.4-12.8 9.6l9.6 11.2c3.2-3.2 8-6.4 11.2-9.6l-8-11.2zM84.8 684.8c-4.8 3.2-8 6.4-11.2 9.6l9.6 12.8c4.8-3.2 8-6.4 12.8-9.6l-11.2-12.8zM62.4 704c-4.8 3.2-8 6.4-11.2 9.6l9.6 12.8c3.2-3.2 8-6.4 11.2-9.6l-9.6-12.8zM38.4 723.2c-4.8 3.2-8 6.4-11.2 9.6l11.2 11.2c3.2-3.2 6.4-6.4 11.2-9.6l-11.2-11.2zM1016 675.2l-12.8 9.6c3.2 3.2 3.2 4.8 4.8 4.8l12.8-8c0 0-1.6-3.2-4.8-6.4zM19.2 324.8l-4.8 16 6.4 1.6 4.8-16zM710.4 288c-4.8 3.2-9.6 4.8-12.8 8l8 14.4c4.8-3.2 9.6-4.8 14.4-8l-9.6-14.4zM684.8 302.4c-4.8 1.6-9.6 4.8-14.4 6.4l6.4 14.4c4.8-1.6 9.6-4.8 14.4-6.4l-6.4-14.4zM656 315.2l-14.4 6.4 6.4 14.4 14.4-6.4-6.4-14.4zM628.8 326.4c-4.8 1.6-9.6 3.2-14.4 4.8l4.8 14.4c4.8-1.6 9.6-3.2 14.4-4.8l-4.8-14.4zM40 331.2l-4.8 16c4.8 1.6 9.6 3.2 14.4 3.2l3.2-16c-3.2-1.6-8-3.2-12.8-3.2zM600 336c-4.8 1.6-9.6 3.2-14.4 4.8l4.8 16c4.8-1.6 9.6-3.2 14.4-4.8l-4.8-16zM70.4 337.6l-3.2 16 14.4 3.2 3.2-16-14.4-3.2zM100.8 344l-3.2 16c4.8 1.6 9.6 1.6 16 3.2l3.2-16c-6.4-1.6-11.2-1.6-16-3.2zM569.6 344c-4.8 1.6-9.6 3.2-14.4 3.2l3.2 16c4.8-1.6 9.6-3.2 14.4-3.2l-3.2-16zM129.6 350.4l-3.2 16c4.8 1.6 9.6 1.6 16 3.2l3.2-16c-4.8-1.6-11.2-3.2-16-3.2zM540.8 352c-4.8 1.6-9.6 1.6-14.4 3.2l3.2 16c4.8-1.6 9.6-1.6 16-3.2l-4.8-16zM160 355.2l-3.2 16c4.8 0 9.6 1.6 16 1.6l1.6-16c-3.2 0-9.6-1.6-14.4-1.6zM510.4 356.8c-4.8 1.6-9.6 1.6-14.4 3.2l3.2 16c4.8 0 9.6-1.6 16-3.2l-4.8-16zM190.4 360l-1.6 16c4.8 0 9.6 1.6 16 1.6l1.6-16c-4.8 0-11.2-1.6-16-1.6zM480 361.6c-4.8 0-9.6 1.6-14.4 1.6l1.6 16c4.8 0 9.6-1.6 16-1.6l-3.2-16zM220.8 363.2l-1.6 16 16 1.6 1.6-16-16-1.6zM449.6 366.4c-4.8 0-9.6 1.6-14.4 1.6l1.6 16c4.8 0 9.6-1.6 16-1.6l-3.2-16zM251.2 366.4l-1.6 16c4.8 0 9.6 1.6 16 1.6l1.6-16c-4.8-1.6-11.2-1.6-16-1.6zM419.2 368c-4.8 0-9.6 0-16 1.6l1.6 16c4.8 0 9.6 0 16-1.6l-1.6-16zM281.6 368l-1.6 16c4.8 0 9.6 0 16 1.6v-16c-3.2 0-8-1.6-14.4-1.6zM312 369.6v16h16v-16h-16zM388.8 369.6c-4.8 0-9.6 0-16 0v16c4.8 0 9.6 0 16 0v-16zM344 371.2v16h16v-16h-16zM731.2 276.8l-6.4 4.8 8 12.8 6.4-3.2zM1004.8 251.2c0 0 0 3.2 0 6.4l16 1.6c0-4.8 0-8 0-8h-16zM1003.2 272c0 4.8-1.6 9.6-1.6 14.4l16 3.2c1.6-6.4 1.6-11.2 3.2-16l-17.6-1.6zM998.4 300.8c-1.6 4.8-1.6 9.6-3.2 14.4l16 3.2c1.6-4.8 3.2-9.6 3.2-14.4l-16-3.2zM990.4 329.6c-1.6 4.8-3.2 9.6-4.8 14.4l16 4.8c1.6-4.8 3.2-9.6 4.8-14.4l-16-4.8zM980.8 358.4c-1.6 4.8-3.2 9.6-4.8 14.4l14.4 6.4c1.6-4.8 3.2-9.6 4.8-14.4l-14.4-6.4zM971.2 387.2c-1.6 4.8-3.2 9.6-6.4 14.4l14.4 6.4c1.6-4.8 4.8-9.6 6.4-14.4l-14.4-6.4zM958.4 414.4c-1.6 4.8-4.8 9.6-6.4 12.8l14.4 6.4c1.6-4.8 4.8-9.6 6.4-14.4l-14.4-4.8zM945.6 440c-1.6 4.8-4.8 8-6.4 12.8l14.4 8c3.2-4.8 4.8-9.6 8-12.8l-16-8zM931.2 467.2c-3.2 4.8-4.8 8-8 12.8l14.4 8c3.2-4.8 4.8-9.6 8-12.8l-14.4-8zM915.2 492.8c-3.2 4.8-4.8 8-8 12.8l12.8 9.6c3.2-4.8 6.4-8 8-12.8l-12.8-9.6zM899.2 518.4c-3.2 4.8-6.4 8-8 12.8l12.8 9.6c3.2-4.8 6.4-8 8-12.8l-12.8-9.6zM881.6 542.4c-3.2 3.2-6.4 8-9.6 11.2l12.8 9.6c3.2-4.8 6.4-8 9.6-12.8l-12.8-8zM862.4 566.4c-3.2 3.2-6.4 8-9.6 11.2l12.8 9.6c3.2-3.2 6.4-8 9.6-11.2l-12.8-9.6zM843.2 588.8c-3.2 3.2-6.4 8-9.6 11.2l11.2 11.2c3.2-3.2 6.4-8 9.6-11.2l-11.2-11.2zM824 611.2c-3.2 3.2-6.4 8-9.6 11.2l11.2 11.2c3.2-3.2 6.4-8 9.6-11.2l-11.2-11.2zM803.2 633.6c-3.2 3.2-6.4 6.4-11.2 11.2l11.2 11.2c3.2-3.2 8-8 11.2-11.2l-11.2-11.2zM782.4 654.4l-11.2 9.6 11.2 11.2 11.2-11.2-11.2-9.6zM760 675.2c-3.2 3.2-8 6.4-11.2 9.6l9.6 12.8c3.2-3.2 8-6.4 11.2-9.6l-9.6-12.8zM737.6 694.4c-3.2 3.2-8 6.4-11.2 9.6l9.6 12.8c4.8-3.2 8-6.4 12.8-9.6l-11.2-12.8zM713.6 712c-4.8 3.2-8 6.4-12.8 8l9.6 12.8c4.8-3.2 8-6.4 12.8-9.6l-9.6-11.2zM688 729.6c-4.8 3.2-8 4.8-12.8 8l8 12.8c4.8-3.2 8-4.8 12.8-8l-8-12.8zM662.4 745.6c-4.8 3.2-8 4.8-12.8 8l8 14.4c4.8-3.2 9.6-4.8 12.8-8l-8-14.4zM636.8 760c-4.8 1.6-9.6 4.8-12.8 6.4l8 14.4c4.8-1.6 9.6-4.8 12.8-8l-8-12.8zM611.2 774.4c-4.8 1.6-9.6 4.8-12.8 6.4l6.4 14.4c4.8-1.6 9.6-4.8 14.4-6.4l-8-14.4zM584 787.2c-4.8 1.6-9.6 4.8-14.4 6.4l6.4 14.4c4.8-1.6 9.6-4.8 14.4-6.4l-6.4-14.4zM555.2 800c-4.8 1.6-9.6 3.2-14.4 6.4l6.4 14.4c4.8-1.6 9.6-3.2 14.4-6.4l-6.4-14.4zM528 809.6c-4.8 1.6-9.6 3.2-14.4 4.8l4.8 14.4c4.8-1.6 9.6-3.2 14.4-4.8l-4.8-14.4zM499.2 820.8c-4.8 1.6-9.6 3.2-14.4 4.8l4.8 16c4.8-1.6 9.6-3.2 14.4-4.8l-4.8-16zM470.4 830.4c-4.8 1.6-9.6 3.2-14.4 4.8l4.8 16c4.8-1.6 9.6-3.2 14.4-4.8l-4.8-16zM441.6 838.4c-4.8 1.6-9.6 3.2-14.4 4.8l4.8 16c4.8-1.6 9.6-3.2 14.4-4.8l-4.8-16zM412.8 846.4c-4.8 1.6-9.6 3.2-14.4 3.2l3.2 16c4.8-1.6 9.6-1.6 14.4-3.2l-3.2-16zM384 854.4c-4.8 1.6-9.6 1.6-14.4 3.2l3.2 16c4.8-1.6 9.6-1.6 14.4-3.2l-3.2-16zM353.6 860.8c-4.8 1.6-9.6 1.6-14.4 3.2l3.2 16c4.8-1.6 9.6-1.6 14.4-3.2l-3.2-16zM324.8 865.6l-14.4 3.2 3.2 16 14.4-3.2-3.2-16zM294.4 872l-14.4 1.6 3.2 16 14.4-3.2-3.2-14.4zM264 875.2l-14.4 1.6 1.6 16 14.4-1.6-1.6-16zM235.2 880l-14.4 1.6 1.6 16 14.4-1.6-1.6-16zM204.8 883.2l-14.4 1.6 1.6 16 14.4-1.6-1.6-16zM174.4 886.4l-14.4 1.6 1.6 16 14.4-1.6-1.6-16zM144 889.6c-4.8 0-9.6 0-14.4 1.6l1.6 16c4.8 0 9.6 0 16-1.6l-3.2-16zM113.6 891.2h-14.4v16h16l-1.6-16zM84.8 891.2h-14.4v16h16l-1.6-16zM54.4 892.8h-14.4v16h16l-1.6-16zM16 892.8v16h8v-16zM923.2-68.8c-3.2 1.6-8 4.8-14.4 8l8 12.8c4.8-3.2 9.6-6.4 12.8-6.4l-6.4-14.4zM896-51.2c-3.2 3.2-8 6.4-11.2 11.2l11.2 11.2c3.2-3.2 8-6.4 11.2-9.6l-11.2-12.8zM873.6-28.8l-3.2 3.2c-3.2 3.2-4.8 6.4-6.4 9.6l12.8 9.6c1.6-3.2 4.8-6.4 6.4-8l1.6-3.2-11.2-11.2zM854.4-3.2c-3.2 4.8-4.8 9.6-8 14.4l14.4 6.4c1.6-4.8 4.8-8 6.4-12.8l-12.8-8zM841.6 25.6c-3.2 9.6-4.8 16-4.8 16l16 3.2c0 0 1.6-4.8 3.2-12.8l-14.4-6.4zM780.8-67.2c-4.8 1.6-9.6 1.6-14.4 3.2l3.2 16c4.8-1.6 9.6-1.6 14.4-3.2l-3.2-16zM750.4-62.4c-4.8 1.6-9.6 1.6-14.4 3.2l3.2 16c4.8-1.6 9.6-1.6 14.4-3.2l-3.2-16zM721.6-54.4c-4.8 1.6-9.6 3.2-14.4 3.2l4.8 16c4.8-1.6 9.6-3.2 14.4-3.2l-4.8-16zM691.2-48c-4.8 1.6-9.6 3.2-14.4 4.8l4.8 16c4.8-1.6 9.6-3.2 14.4-4.8l-4.8-16zM662.4-38.4c-4.8 1.6-9.6 3.2-14.4 4.8l4.8 16c4.8-1.6 9.6-3.2 14.4-4.8l-4.8-16zM632-28.8c-4.8 1.6-9.6 3.2-14.4 4.8l6.4 14.4c4.8-1.6 9.6-3.2 14.4-4.8l-6.4-14.4zM603.2-17.6c-4.8 1.6-9.6 3.2-14.4 6.4l6.4 14.4c4.8-1.6 9.6-3.2 14.4-6.4l-6.4-14.4zM576-6.4l-14.4 6.4 6.4 14.4 14.4-6.4-6.4-14.4zM547.2 4.8l-14.4 6.4 6.4 14.4 14.4-6.4-6.4-14.4zM520 17.6l-14.4 6.4 6.4 14.4 14.4-6.4-6.4-14.4zM491.2 28.8l-14.4 6.4 6.4 14.4 14.4-6.4-6.4-14.4z" />
<glyph unicode="&#xe91e;" glyph-name="serv-aduanales" d="M582.4 841.6h265.6v-70.4h-214.4zM848 745.6h-214.4l-40-54.4h48c1.6-54.4 46.4-99.2 102.4-99.2s100.8 44.8 102.4 99.2h1.6v54.4zM507.2 180.8h-342.4v-80c0-22.4 17.6-40 40-40h302.4c22.4 0 40 17.6 40 40v80h-40zM166.4 220.8v342.4h-81.6c-22.4 0-40-17.6-40-40v-302.4c0-22.4 17.6-40 40-40h80v40zM593.6 256l246.4 305.6h-246.4c0 0-38.4 0-49.6-14.4l-224-291.2c-12.8-17.6-9.6-43.2 8-56l14.4-11.2c17.6-12.8 43.2-9.6 56 8l196.8 256v-196.8zM910.4 561.6h-3.2l-264-326.4h235.2v-52.8h-284.8v-121.6h376v441.6c0 32-25.6 59.2-59.2 59.2z" />
<glyph unicode="&#xe91f;" glyph-name="serv-consolidacion" d="M28.8 406.4l344-1.6 72-62.4 363.2-3.2 59.2 44.8 126.4-1.6-51.2-164.8v-62.4h-838.4l-8 36.8 59.2 25.6-126.4 188.8zM84.8 744h131.2v-94.4h-131.2v94.4zM84.8 633.6h131.2v-94.4h-131.2v94.4zM678.4 432v-72l118.4 1.6 59.2 59.2h51.2v107.2h41.6v88h-96v25.6l-100.8 40v-86.4h28.8v-20.8h-28.8v-142.4h-73.6zM446.4 432v-72h104v72h-104zM84.8 521.6h131.2v-94.4h-131.2v94.4zM238.4 521.6v-94.4h131.2v94.4h-57.6v144l257.6-164.8v-36.8h24v-104h54.4v104h44.8v128h-41.6l-336 148.8-16 6.4-6.4-16-12.8-30.4-4.8-12.8 11.2-8 9.6-6.4v-153.6h-57.6v1.6zM448 644.8l-24-12.8-6.4 4.8-6.4 24 36.8-16zM510.4 617.6l-28.8-17.6-1.6 30.4 30.4-12.8zM556.8 596.8l-19.2-17.6-1.6 25.6 20.8-8zM540.8 560l28.8 27.2v-44.8l-28.8 17.6zM494.4 588.8l25.6 16 1.6-32-27.2 16zM441.6 622.4l22.4 12.8v-27.2l-22.4 14.4zM385.6 657.6l8 6.4 3.2-12.8-11.2 6.4zM353.6 678.4c0 3.2 1.6 4.8 1.6 8l25.6-11.2c-3.2-1.6-6.4-4.8-9.6-8l-17.6 11.2zM342.4 692.8c0-1.6 1.6-4.8 1.6-8l-28.8 17.6v1.6l27.2-11.2zM892.8 596.8h36.8v-20.8h-36.8v20.8zM843.2 596.8h36.8v-20.8h-36.8v20.8zM795.2 596.8h36.8v-20.8h-36.8v20.8zM456 294.4v-22.4h33.6v22.4h-33.6zM681.6 294.4v-22.4h33.6v22.4h-33.6zM737.6 294.4v-22.4h33.6v22.4h-33.6zM625.6 294.4v-22.4h33.6v22.4h-33.6zM568 294.4v-22.4h33.6v22.4h-33.6zM513.6 294.4v-22.4h33.6v22.4h-33.6z" />
<glyph unicode="&#xe920;" glyph-name="valor-agregado" d="M332.8 366.4l-209.6 104v-198.4l294.4-139.2v369.6zM417.6 521.6l-294.4 139.2-89.6-136 294.4-145.6zM422.4 774.4l-299.2-100.8 299.2-140.8 299.2 140.8-299.2 100.8zM150.4 672l273.6 92.8 272-92.8-273.6-128-272 128zM604.8 371.2v41.6l-91.2-44.8-84.8 136v-369.6l228.8 108.8c-27.2 35.2-49.6 80-52.8 128zM916.8 604.8c-83.2 24-104 36.8-104 36.8s-22.4-12.8-104-36.8c-57.6-16-91.2-25.6-91.2-25.6v-209.6c8-137.6 182.4-244.8 190.4-249.6l4.8-3.2 4.8 3.2c8 4.8 182.4 112 190.4 249.6v209.6c0 0-35.2 9.6-91.2 25.6zM996.8 371.2c-6.4-115.2-137.6-209.6-174.4-235.2l-9.6-6.4v500.8c0 0 9.6-4.8 9.6-4.8 14.4-6.4 43.2-17.6 91.2-30.4 41.6-11.2 70.4-19.2 83.2-24v-200zM604.8 588.8l8 1.6c0 0 33.6 9.6 91.2 25.6 16 4.8 28.8 8 40 12.8l-20.8 32-294.4-139.2 89.6-142.4 88 43.2-1.6 166.4z" />
<glyph unicode="&#xe921;" glyph-name="ventajas" d="M60.8 328c52.8 20.8 107.2 41.6 160 62.4 12.8 9.6 27.2 19.2 40 30.4l83.2-166.4 73.6 166.4c14.4-9.6 27.2-20.8 41.6-30.4l110.4-41.6c1.6 4.8 3.2 8 4.8 9.6 40 14.4 75.2 30.4 99.2 35.2 24-54.4 60.8-96 105.6-126.4 49.6 33.6 84.8 76.8 108.8 126.4 25.6-4.8 57.6-14.4 84.8-19.2 22.4-41.6 24-142.4 22.4-203.2h-339.2c1.6-27.2 0-56 0-84.8-206.4 0-412.8 0-619.2 0-4.8 116.8 3.2 200 24 241.6v0zM689.6 571.2c48-6.4 140.8 3.2 179.2 19.2 1.6-25.6 1.6-73.6-14.4-112-8-17.6-17.6-32-28.8-43.2l89.6-1.6c0 0-9.6 73.6-6.4 91.2 36.8 259.2-297.6 259.2-260.8 0 3.2-19.2-6.4-91.2-6.4-91.2l91.2 1.6c-11.2 11.2-22.4 25.6-30.4 43.2-11.2 30.4-14.4 67.2-12.8 92.8v0 0zM225.6 536c-4.8 51.2-6.4 86.4 9.6 136 57.6 35.2 129.6-22.4 216-1.6 8-41.6 11.2-78.4 9.6-137.6 0 0 33.6 28.8 38.4 52.8s-4.8 134.4-16 152c-48 70.4-220.8 72-273.6 12.8-14.4-16-30.4-166.4-14.4-185.6 12.8-20.8 30.4-28.8 30.4-28.8z" />
</font>
</defs>
</svg>
